<svg width="17" height="17" viewBox="0 0 17 17" fill="none" xmlns="http://www.w3.org/2000/svg">
<path d="M16.7344 8.62549C16.7344 13.1743 13.0156 16.8599 8.5 16.8599C3.95117 16.8599 0.265625 13.1743 0.265625 8.62549C0.265625 4.10986 3.95117 0.391113 8.5 0.391113C13.0156 0.391113 16.7344 4.10986 16.7344 8.62549ZM7.53711 13.0083L13.6465 6.89893C13.8457 6.69971 13.8457 6.33447 13.6465 6.13525L12.8828 5.40479C12.6836 5.17236 12.3516 5.17236 12.1523 5.40479L7.17188 10.3853L4.81445 8.06104C4.61523 7.82861 4.2832 7.82861 4.08398 8.06104L3.32031 8.7915C3.12109 8.99072 3.12109 9.35596 3.32031 9.55518L6.77344 13.0083C6.97266 13.2075 7.33789 13.2075 7.53711 13.0083Z" fill="#E75234"/>
</svg>
